<?xml version="1.0" encoding="UTF-8" standalone="no"?>
<!-- Created with Inkscape (http://www.inkscape.org/) -->

<svg viewBox="0 0 32 27" version="1.1" xml:space="preserve" xmlns="http://www.w3.org/2000/svg" xmlns:svg="http://www.w3.org/2000/svg">
  <title>OpenProcessing</title>
  <path style="stroke-width:1" d="M 13.200228,0 A 13.2,13.2 0 0 0 0,13.200228 13.2,13.2 0 0 0 13.200228,26.399939 13.2,13.2 0 0 0 15.999023,26.095048 13.199961,13.2 0 0 0 18.800403,26.399939 13.199961,13.2 0 0 0 32.000114,13.200228 13.199961,13.2 0 0 0 18.800403,0 13.199961,13.2 0 0 0 16.008842,0.30334066 13.2,13.2 0 0 0 13.200228,0 Z m 0,0.99993896 a 12.2,12.2 0 0 1 0.54777,0.0129191 13.199961,13.2 0 0 0 -8.1473063,12.1873699 v 9.532235 A 12.2,12.2 0 0 1 0.99993896,13.200228 12.2,12.2 0 0 1 13.200228,0.99993896 Z m 5.600175,0 A 12.199964,12.2 0 0 1 31.000175,13.200228 12.199964,12.2 0 0 1 18.800403,25.4 12.199964,12.2 0 0 1 18.270719,25.379329 13.2,13.2 0 0 0 26.399939,13.200228 13.2,13.2 0 0 0 18.285706,1.0200928 12.199964,12.2 0 0 1 18.800403,0.99993896 Z M 16.001607,1.3270508 A 12.2,12.2 0 0 1 25.4,13.200228 12.2,12.2 0 0 1 16.000057,25.072371 12.199964,12.2 0 0 1 6.6001139,13.200228 12.199964,12.2 0 0 1 16.001607,1.3270508 Z M 6.6001139,18.22266 A 13.199961,13.2 0 0 0 13.729911,25.379329 12.2,12.2 0 0 1 13.200228,25.4 12.2,12.2 0 0 1 6.6001139,23.451282 Z" />
</svg>
